<svg width="16" height="19" viewBox="0 0 16 19" fill="none" xmlns="http://www.w3.org/2000/svg">
<path d="M7.88361 0.615479C8.8053 0.615479 9.70629 0.886167 10.4727 1.39331C11.239 1.90046 11.8363 2.62128 12.189 3.46463C12.5417 4.30798 12.634 5.23598 12.4542 6.13128C12.2744 7.02658 11.8306 7.84896 11.1788 8.49443C10.5271 9.1399 9.69674 9.57948 8.79276 9.75756C7.88878 9.93565 6.95178 9.84425 6.10024 9.49492C5.24871 9.14559 4.52089 8.55403 4.00883 7.79503C3.49677 7.03604 3.22345 6.1437 3.22345 5.23086C3.22345 4.00679 3.71443 2.83285 4.58838 1.96729C5.46233 1.10174 6.64766 0.615479 7.88361 0.615479ZM7.88361 18.1539C6.41229 18.1593 4.95742 17.8475 3.61996 17.2402C2.28251 16.6329 1.09451 15.7446 0.138428 14.637C2.2642 12.7416 5.02326 11.6928 7.88361 11.6928C10.744 11.6928 13.503 12.7416 15.6288 14.637C14.6727 15.7446 13.4847 16.6329 12.1473 17.2402C10.8098 17.8475 9.35493 18.1593 7.88361 18.1539Z" fill="#8E92A9"/>
</svg>
