<svg width="24" height="24" viewBox="0 0 24 24" fill="none" xmlns="http://www.w3.org/2000/svg">
<g clip-path="url(#clip0_3_487)">
<path d="M3.75 4.99997C3.75 4.8619 3.86193 4.74997 4 4.74997H23C23.1381 4.74997 23.25 4.8619 23.25 4.99997V16C23.25 16.138 23.1381 16.25 23 16.25H4C3.86193 16.25 3.75 16.138 3.75 16V4.99997Z" fill="white" stroke="#9597A6" stroke-width="1.5"/>
<path d="M17.25 10.5C17.25 12.0188 16.0188 13.25 14.5 13.25C12.9812 13.25 11.75 12.0188 11.75 10.5C11.75 8.98119 12.9812 7.74997 14.5 7.74997C16.0188 7.74997 17.25 8.98119 17.25 10.5Z" fill="white" stroke="#9597A6" stroke-width="1.5"/>
<path d="M0.75 7.99997C0.75 7.8619 0.861929 7.74997 1 7.74997H20C20.1381 7.74997 20.25 7.8619 20.25 7.99997V19C20.25 19.138 20.1381 19.25 20 19.25H1C0.861929 19.25 0.75 19.138 0.75 19V7.99997Z" fill="white" stroke="#9597A6" stroke-width="1.5"/>
<path d="M13.25 13.5C13.25 15.0188 12.0188 16.25 10.5 16.25C8.98122 16.25 7.75 15.0188 7.75 13.5C7.75 11.9812 8.98122 10.75 10.5 10.75C12.0188 10.75 13.25 11.9812 13.25 13.5Z" fill="white" stroke="#9597A6" stroke-width="1.5"/>
</g>
<defs>
<clipPath id="clip0_3_487">
<rect width="24" height="24" fill="white"/>
</clipPath>
</defs>
</svg>
